<svg id="visual" viewBox="0 0 2560 1440" width="2560" height="1440" xmlns="http://www.w3.org/2000/svg" xmlns:xlink="http://www.w3.org/1999/xlink" version="1.1"><rect x="0" y="0" width="2560" height="1440" fill="#16050e"></rect><path d="M0 911L35.5 921.3C71 931.7 142 952.3 213.2 959.7C284.3 967 355.7 961 426.8 960C498 959 569 963 640 958.7C711 954.3 782 941.7 853.2 922.8C924.3 904 995.7 879 1066.8 886.2C1138 893.3 1209 932.7 1280 954.2C1351 975.7 1422 979.3 1493.2 981.8C1564.3 984.3 1635.7 985.7 1706.8 955.8C1778 926 1849 865 1920 864C1991 863 2062 922 2133.2 938.2C2204.3 954.3 2275.7 927.7 2346.8 899.3C2418 871 2489 841 2524.5 826L2560 811L2560 1441L2524.5 1441C2489 1441 2418 1441 2346.8 1441C2275.7 1441 2204.3 1441 2133.2 1441C2062 1441 1991 1441 1920 1441C1849 1441 1778 1441 1706.8 1441C1635.7 1441 1564.3 1441 1493.2 1441C1422 1441 1351 1441 1280 1441C1209 1441 1138 1441 1066.8 1441C995.7 1441 924.3 1441 853.2 1441C782 1441 711 1441 640 1441C569 1441 498 1441 426.8 1441C355.7 1441 284.3 1441 213.2 1441C142 1441 71 1441 35.5 1441L0 1441Z" fill="#f46f65"></path><path d="M0 909L35.5 911.8C71 914.7 142 920.3 213.2 925.5C284.3 930.7 355.7 935.3 426.8 951.7C498 968 569 996 640 1010C711 1024 782 1024 853.2 1023.7C924.3 1023.3 995.7 1022.7 1066.8 1015.2C1138 1007.7 1209 993.3 1280 989.2C1351 985 1422 991 1493.2 992.7C1564.3 994.3 1635.7 991.7 1706.8 978.5C1778 965.3 1849 941.7 1920 957.7C1991 973.7 2062 1029.3 2133.2 1055.8C2204.3 1082.3 2275.7 1079.7 2346.8 1079.8C2418 1080 2489 1083 2524.5 1084.5L2560 1086L2560 1441L2524.5 1441C2489 1441 2418 1441 2346.8 1441C2275.7 1441 2204.3 1441 2133.2 1441C2062 1441 1991 1441 1920 1441C1849 1441 1778 1441 1706.8 1441C1635.7 1441 1564.3 1441 1493.2 1441C1422 1441 1351 1441 1280 1441C1209 1441 1138 1441 1066.8 1441C995.7 1441 924.3 1441 853.2 1441C782 1441 711 1441 640 1441C569 1441 498 1441 426.8 1441C355.7 1441 284.3 1441 213.2 1441C142 1441 71 1441 35.5 1441L0 1441Z" fill="#d7565b"></path><path d="M0 1099L35.5 1091.5C71 1084 142 1069 213.2 1065.2C284.3 1061.3 355.7 1068.7 426.8 1087.8C498 1107 569 1138 640 1154.8C711 1171.7 782 1174.3 853.2 1170.2C924.3 1166 995.7 1155 1066.8 1137.5C1138 1120 1209 1096 1280 1099.5C1351 1103 1422 1134 1493.2 1131.3C1564.3 1128.7 1635.7 1092.3 1706.8 1083.8C1778 1075.3 1849 1094.7 1920 1110.8C1991 1127 2062 1140 2133.2 1147.5C2204.3 1155 2275.7 1157 2346.8 1162.7C2418 1168.3 2489 1177.7 2524.5 1182.3L2560 1187L2560 1441L2524.5 1441C2489 1441 2418 1441 2346.8 1441C2275.7 1441 2204.3 1441 2133.2 1441C2062 1441 1991 1441 1920 1441C1849 1441 1778 1441 1706.8 1441C1635.7 1441 1564.3 1441 1493.2 1441C1422 1441 1351 1441 1280 1441C1209 1441 1138 1441 1066.8 1441C995.7 1441 924.3 1441 853.2 1441C782 1441 711 1441 640 1441C569 1441 498 1441 426.8 1441C355.7 1441 284.3 1441 213.2 1441C142 1441 71 1441 35.5 1441L0 1441Z" fill="#b93e51"></path><path d="M0 1273L35.5 1250.2C71 1227.3 142 1181.7 213.2 1180.5C284.3 1179.3 355.7 1222.7 426.8 1237.8C498 1253 569 1240 640 1219.2C711 1198.3 782 1169.7 853.2 1169.5C924.3 1169.3 995.7 1197.7 1066.8 1202.7C1138 1207.7 1209 1189.3 1280 1174C1351 1158.7 1422 1146.3 1493.2 1142.2C1564.3 1138 1635.7 1142 1706.8 1146.8C1778 1151.7 1849 1157.3 1920 1158.8C1991 1160.3 2062 1157.7 2133.2 1165.8C2204.3 1174 2275.7 1193 2346.8 1205.7C2418 1218.3 2489 1224.7 2524.5 1227.8L2560 1231L2560 1441L2524.5 1441C2489 1441 2418 1441 2346.8 1441C2275.7 1441 2204.3 1441 2133.2 1441C2062 1441 1991 1441 1920 1441C1849 1441 1778 1441 1706.8 1441C1635.7 1441 1564.3 1441 1493.2 1441C1422 1441 1351 1441 1280 1441C1209 1441 1138 1441 1066.8 1441C995.7 1441 924.3 1441 853.2 1441C782 1441 711 1441 640 1441C569 1441 498 1441 426.8 1441C355.7 1441 284.3 1441 213.2 1441C142 1441 71 1441 35.5 1441L0 1441Z" fill="#9b2646"></path><path d="M0 1254L35.5 1258.5C71 1263 142 1272 213.2 1272C284.3 1272 355.7 1263 426.8 1267.2C498 1271.3 569 1288.7 640 1294.7C711 1300.7 782 1295.3 853.2 1297.8C924.3 1300.3 995.7 1310.7 1066.8 1326.8C1138 1343 1209 1365 1280 1366.7C1351 1368.3 1422 1349.7 1493.2 1330C1564.3 1310.3 1635.7 1289.7 1706.8 1276.7C1778 1263.7 1849 1258.3 1920 1266C1991 1273.7 2062 1294.3 2133.2 1303C2204.3 1311.7 2275.7 1308.3 2346.8 1313.8C2418 1319.3 2489 1333.7 2524.5 1340.8L2560 1348L2560 1441L2524.5 1441C2489 1441 2418 1441 2346.8 1441C2275.7 1441 2204.3 1441 2133.2 1441C2062 1441 1991 1441 1920 1441C1849 1441 1778 1441 1706.8 1441C1635.7 1441 1564.3 1441 1493.2 1441C1422 1441 1351 1441 1280 1441C1209 1441 1138 1441 1066.8 1441C995.7 1441 924.3 1441 853.2 1441C782 1441 711 1441 640 1441C569 1441 498 1441 426.8 1441C355.7 1441 284.3 1441 213.2 1441C142 1441 71 1441 35.5 1441L0 1441Z" fill="#7e0a3a"></path></svg>